<?xml version="1.0" encoding="UTF-8"?>
<svg id="Layer_1" xmlns="http://www.w3.org/2000/svg" xmlns:xlink="http://www.w3.org/1999/xlink" version="1.1" viewBox="0 0 500 133">
  <!-- Generator: Adobe Illustrator 29.1.0, SVG Export Plug-In . SVG Version: 2.1.0 Build 142)  -->
  <defs>
    <style>
      .st0 {
        fill: none;
      }

      .st1 {
        clip-path: url(#clippath-1);
      }

      .st2 {
        clip-path: url(#clippath-3);
      }

      .st3 {
        clip-path: url(#clippath-4);
      }

      .st4 {
        clip-path: url(#clippath-2);
      }

      .st5 {
        clip-path: url(#clippath-5);
      }

      .st6 {
        fill: #18cb96;
      }

      .st7 {
        fill: #fff;
      }

      .st8 {
        clip-path: url(#clippath);
      }
    </style>
    <clipPath id="clippath">
      <rect class="st0" x="397.3" y="26.3" width="48" height="49.3"/>
    </clipPath>
    <clipPath id="clippath-1">
      <rect class="st0" x="404.7" y="10.4" width="45" height="68" transform="translate(83.3 301.7) rotate(-42.7)"/>
    </clipPath>
    <clipPath id="clippath-2">
      <rect class="st0" x="404.7" y="10.4" width="45" height="68" transform="translate(83.3 301.7) rotate(-42.7)"/>
    </clipPath>
    <clipPath id="clippath-3">
      <rect class="st0" x="421.3" y="5" width="48" height="48"/>
    </clipPath>
    <clipPath id="clippath-4">
      <rect class="st0" x="428.7" y="-11.7" width="45" height="68" transform="translate(104.7 312.1) rotate(-42.7)"/>
    </clipPath>
    <clipPath id="clippath-5">
      <rect class="st0" x="428.7" y="-11.7" width="45" height="68" transform="translate(104.7 312.1) rotate(-42.7)"/>
    </clipPath>
  </defs>
  <g class="st8">
    <g class="st1">
      <g class="st4">
        <path class="st6" d="M444.3,29.2l-40.5-1.8c-7.8-.3-9.2,14.9.1,15.2l25.2.7-1.9,25.4c-.6,7.7,14.5,8.5,14.9.7l2.2-40.1Z"/>
      </g>
    </g>
  </g>
  <g class="st2">
    <g class="st3">
      <g class="st5">
        <path class="st6" d="M468.3,7l-40.5-1.8c-7.8-.3-9.2,14.9.1,15.2l25.2.7-1.9,25.4c-.6,7.7,14.5,8.5,14.9.7l2.2-40.1Z"/>
      </g>
    </g>
  </g>
  <path class="st7" d="M51.3,55.7c5.5,0,10.3,1.1,14.4,3.4,4.1,2.3,7.3,5.5,9.6,9.6,2.3,4.1,3.4,8.9,3.4,14.4,0,5.3-1.3,10-3.5,14.1s-5.5,7.2-9.6,9.5c-4.1,2.3-8.8,3.4-14.2,3.4s-10.1-1.1-14.2-3.4c-4.1-2.3-7.3-5.4-9.6-9.5s-3.5-8.7-3.5-14.1c0-5.5,1.1-10.3,3.4-14.4,2.3-4.1,5.5-7.3,9.6-9.6,4.1-2.3,8.9-3.4,14.3-3.4ZM51.3,99.8c4.7,0,8.4-1.5,11.1-4.6,2.8-3.1,4.2-7.1,4.2-12s-1.4-9.2-4.2-12.4c-2.8-3.2-6.5-4.8-11.1-4.8s-8.3,1.6-11.1,4.8c-2.8,3.2-4.2,7.3-4.2,12.4s1.4,8.9,4.2,12c2.8,3.1,6.5,4.6,11.1,4.6Z"/>
  <path class="st7" d="M110.3,55.7c5.1,0,9.5,1.1,13.3,3.3,3.8,2.2,6.8,5.3,8.8,9.4,2.1,4,3.1,8.6,3.1,13.9s-1.1,10.3-3.1,14.5c-2.1,4.2-5,7.4-8.7,9.8-3.7,2.3-8,3.5-13,3.5s-4.9-.4-7.6-1.2c-2.7-.8-5.2-2-7.5-3.5v15.7c0,1.7-.6,3-1.8,3.9-1.2.9-2.5,1.3-4,1.3s-2.9-.4-4.1-1.3c-1.2-.9-1.8-2.2-1.8-3.9v-59c0-1.7.5-2.9,1.6-3.9,1.1-.9,2.5-1.4,4.4-1.4,3.1,0,4.9,1.2,5.5,3.6,2.4-1.7,4.9-2.9,7.5-3.6,2.6-.7,5.1-1,7.4-1ZM110.5,99.7c4,0,7.3-1.6,9.8-4.8,2.5-3.2,3.7-7.3,3.7-12.5s-1.3-8.8-4-11.8c-2.6-3-6.1-4.5-10.4-4.5s-5.4.7-8,2.1c-2.6,1.4-4.6,3.4-5.9,6v17c1.1,2.7,3,4.8,5.9,6.2,2.8,1.5,5.8,2.2,8.9,2.2Z"/>
  <path class="st7" d="M166.9,99.3c1.6-.9,3-1.2,4.3-.9,1.3.3,2.3.9,3.1,1.8.8.9,1.2,2,1.2,3.2s-.3,1.8-.8,2.7c-.5.9-1.4,1.6-2.6,2.3-1.5.8-2.9,1.3-4.1,1.5-1.2.2-2.7.3-4.3.3-4.5,0-7.9-.9-10.3-2.8-2.4-1.8-4-4.2-4.9-7.2-.9-2.9-1.3-6.1-1.3-9.3v-24.3h-3.9c-1.9,0-3.3-.5-4.3-1.5-.9-1-1.4-2.1-1.4-3.3s.5-2.4,1.4-3.4c1-1,2.4-1.5,4.2-1.5h3.9v-8.8c0-1.8.6-3.1,1.8-4,1.2-.9,2.5-1.3,4-1.3s2.8.4,4,1.3c1.2.9,1.9,2.2,1.9,4v8.8h8c1.8,0,3.1.5,4.1,1.5,1,1,1.4,2.2,1.4,3.4s-.5,2.3-1.4,3.3c-1,1-2.3,1.5-4.1,1.5h-8v24.3c0,1.5.1,3,.3,4.4.2,1.4.7,2.6,1.4,3.5.7.9,1.8,1.4,3.3,1.4s1.1,0,1.8-.3c.7-.2,1.1-.3,1.5-.5Z"/>
  <path class="st7" d="M189.7,49c0,1.7-.6,3-1.9,3.9-1.3.8-2.6,1.3-4.1,1.3s-2.9-.4-4.1-1.3c-1.2-.9-1.8-2.2-1.8-3.9v-1.3c0-1.8.6-3.1,1.8-3.9,1.2-.8,2.6-1.2,4.1-1.2s2.8.4,4.1,1.2c1.3.8,1.9,2.1,1.9,3.9v1.3ZM177.9,61.8c0-1.7.6-2.9,1.9-3.8,1.3-.9,2.6-1.3,3.9-1.3s2.8.4,4,1.3c1.2.8,1.9,2.1,1.9,3.6v42.3c0,1.7-.6,3-1.9,3.8-1.2.8-2.6,1.2-4,1.2s-2.7-.4-3.9-1.2c-1.3-.8-1.9-2.1-1.9-3.8v-42.2Z"/>
  <path class="st7" d="M192.5,96.8c-.5-1.9,0-3.4,1.3-4.6,1.4-1.2,2.9-1.8,4.5-1.8s2.3.4,3.3,1.1c1,.7,1.7,1.8,2.1,3.2.4,1.2,1.3,2.3,2.7,3,1.4.8,3,1.3,4.8,1.7,1.8.3,3.7.5,5.5.5,3.7,0,6.7-.7,8.9-2,2.3-1.3,3.4-3,3.4-5.1s-.6-2.5-1.8-3.2c-1.2-.7-2.8-1.2-4.7-1.4-1.9-.3-4-.5-6.2-.6-2.9-.3-5.7-.6-8.5-1-2.8-.4-5.3-1.1-7.6-2.1-2.3-1-4.1-2.5-5.4-4.4-1.4-2-2-4.6-2-8s1-6.1,2.9-8.6c1.9-2.5,4.6-4.4,8.1-5.8,3.5-1.4,7.5-2.1,12.1-2.1s5.5.3,8.6.8c3.1.5,5.9,1.6,8.6,3.1,2.6,1.6,4.6,4,5.8,7.3.5,1.4.4,2.6-.1,3.6-.5,1.1-1.3,1.9-2.4,2.4-1.1.5-2.1.8-3.2.8s-2.3-.2-3-.7c-.8-.5-1.4-1.3-2-2.5-.6-1.4-1.7-2.5-3.1-3.2-1.5-.7-3.1-1.1-4.7-1.3-1.7-.2-3.1-.3-4.4-.3-3.4,0-6.2.6-8.3,1.8-2.1,1.2-3.1,2.7-3.1,4.6s.5,2.8,1.6,3.4c1.1.6,2.6.9,4.5,1,1.9,0,4,.3,6.3.6,2.9.3,5.7.7,8.5,1.1,2.8.4,5.4,1.1,7.7,2.1,2.3,1,4.2,2.5,5.5,4.4,1.4,1.9,2.1,4.6,2.1,8s-1,6.3-3,8.9c-2,2.6-4.8,4.6-8.4,6.1-3.6,1.4-7.8,2.1-12.6,2.1s-4.4-.2-6.9-.5c-2.5-.3-4.9-.9-7.3-1.8-2.4-.9-4.4-2.3-6.2-4-1.8-1.8-3-4.1-3.8-6.9Z"/>
  <path class="st7" d="M289.9,56.7c1.8,0,3.2.5,4.3,1.5,1.1,1,1.6,2.3,1.6,3.8v41.6c0,1.6-.5,2.9-1.6,3.9-1.1,1-2.5,1.5-4.3,1.5s-3-.4-4-1.2c-1-.8-1.5-1.8-1.8-3.1-2.3,1.8-4.9,3.2-7.8,4.1-2.9.8-5.6,1.3-8.2,1.3-4.9,0-9.2-1.1-12.8-3.4-3.6-2.3-6.3-5.4-8.3-9.6-1.9-4.1-2.9-8.9-2.9-14.4s1.1-10,3.2-14.1c2.1-4,5.1-7.2,8.9-9.5,3.8-2.3,8.2-3.4,13.2-3.4s4.6.4,7.3,1.2c2.7.8,5.1,2.1,7.4,3.9.3-1.2.9-2.2,1.9-3,1-.8,2.3-1.1,3.9-1.1ZM269.4,99.7c3,0,5.9-.7,8.7-2,2.8-1.3,4.8-3.3,6-5.9v-17.8c-1.3-2.5-3.3-4.5-5.9-5.8-2.6-1.4-5.2-2.1-7.9-2.1-4.3,0-7.8,1.6-10.4,4.7-2.6,3.1-4,7.1-4,12s1.2,9.1,3.7,12.2c2.5,3.1,5.7,4.6,9.8,4.6Z"/>
  <path class="st7" d="M349.5,56.7c1.8,0,3.2.6,4.3,1.8,1.1,1.2,1.6,2.5,1.6,4.1v43.2c0,5-1.2,9.2-3.5,12.6-2.3,3.4-5.4,6-9.3,7.7-3.9,1.7-8.3,2.6-13,2.6s-7.6-.5-10.8-1.5c-3.2-1-6.2-2.8-9-5.4-1.4-1.4-2-2.8-1.9-4.2,0-1.4.6-2.7,1.6-3.7,1-1,2.3-1.6,3.8-1.8,1.5-.1,2.9.4,4.3,1.6,2.1,1.8,4.1,3,5.9,3.6,1.8.6,3.9.8,6.2.8s4.8-.4,7-1.3c2.2-.9,4-2.2,5.3-4.1,1.4-1.8,2.1-4.2,2.1-7v-.9c-2.3,1.7-4.9,3-7.6,3.9-2.7.8-5.3,1.3-7.7,1.3-4.9,0-9.3-1.1-13-3.4-3.7-2.3-6.6-5.4-8.7-9.6-2.1-4.1-3.1-8.9-3.1-14.4s1.1-10,3.2-14.1,5.1-7.2,8.9-9.5c3.8-2.3,8.2-3.4,13.2-3.4s4.8.3,7.4,1c2.6.7,5.1,1.9,7.5,3.6.8-2.4,2.6-3.6,5.5-3.6ZM329,99.7c3.2,0,6.1-.7,9-2,2.8-1.4,4.8-3.4,5.9-6.2v-17.1c-1.3-2.6-3.3-4.6-5.9-6-2.6-1.4-5.3-2.2-8.1-2.2-4.3,0-7.8,1.6-10.4,4.7-2.6,3.1-4,7.1-4,12s1.2,9.1,3.7,12.2c2.5,3.1,5.7,4.6,9.8,4.6Z"/>
  <path class="st7" d="M390.5,99.9c2,0,3.9-.3,5.9-.8,1.9-.6,3.7-1.5,5.3-2.8,1.6-1.4,3.1-2.1,4.6-2,1.5,0,2.8.6,3.8,1.6,1,1,1.5,2.2,1.5,3.7s-.7,2.9-2.1,4.3c-2.4,2.3-5.3,3.9-8.5,4.9-3.3.9-6.6,1.3-10.1,1.3-5.3,0-10-1.1-14.1-3.3-4.1-2.2-7.3-5.2-9.5-9.1-2.3-3.9-3.4-8.4-3.4-13.6s1.1-10.5,3.3-14.8c2.2-4.3,5.3-7.6,9.3-10,4-2.4,8.7-3.6,14.2-3.6s10.1,1.1,14,3.3c3.8,2.2,6.8,5.3,8.8,9.4,2,4,3,8.7,3,14s-.3,3.2-1,4.4c-.7,1.2-2.5,1.8-5.4,1.8h-34.2c1,3.4,2.8,6.1,5.4,8.2s5.8,3.1,9.5,3.1ZM390.6,65.9c-4,0-7.3,1.3-10,3.8-2.7,2.5-4.4,5.8-5.1,9.8h29.9c-.3-4-1.7-7.3-4-9.8-2.3-2.5-5.9-3.8-10.8-3.8Z"/>
</svg>